<mxfile host="app.diagrams.net" modified="2023-11-13T16:32:02.600Z" agent="Mozilla/5.0 (Windows NT 10.0; Win64; x64) AppleWebKit/537.36 (KHTML, like Gecko) Chrome/119.0.0.0 Safari/537.36" etag="1BGURrF9_VRIXx5B0_-u" version="22.1.0" type="device" pages="2">
  <diagram id="prtHgNgQTEPvFCAcTncT" name="SigninFlow">
    <mxGraphModel dx="840" dy="418" grid="1" gridSize="10" guides="1" tooltips="1" connect="1" arrows="1" fold="1" page="1" pageScale="1" pageWidth="827" pageHeight="1169" math="0" shadow="0">
      <root>
        <mxCell id="0" />
        <mxCell id="1" parent="0" />
        <mxCell id="dNxyNK7c78bLwvsdeMH5-19" value="SignUp Flow" style="swimlane;html=1;childLayout=stackLayout;resizeParent=1;resizeParentMax=0;horizontal=0;startSize=20;horizontalStack=0;" parent="1" vertex="1">
          <mxGeometry x="120" y="120" width="2920" height="900" as="geometry" />
        </mxCell>
        <mxCell id="dNxyNK7c78bLwvsdeMH5-20" value="UI / Templates" style="swimlane;html=1;startSize=20;horizontal=0;" parent="dNxyNK7c78bLwvsdeMH5-19" vertex="1">
          <mxGeometry x="20" width="2900" height="160" as="geometry" />
        </mxCell>
        <mxCell id="dNxyNK7c78bLwvsdeMH5-25" value="" style="edgeStyle=orthogonalEdgeStyle;rounded=0;orthogonalLoop=1;jettySize=auto;html=1;" parent="dNxyNK7c78bLwvsdeMH5-20" source="dNxyNK7c78bLwvsdeMH5-23" target="dNxyNK7c78bLwvsdeMH5-24" edge="1">
          <mxGeometry relative="1" as="geometry" />
        </mxCell>
        <mxCell id="dNxyNK7c78bLwvsdeMH5-23" value="START" style="ellipse;whiteSpace=wrap;html=1;" parent="dNxyNK7c78bLwvsdeMH5-20" vertex="1">
          <mxGeometry x="40" y="40" width="50" height="40" as="geometry" />
        </mxCell>
        <mxCell id="dNxyNK7c78bLwvsdeMH5-24" value="SignUpScreen" style="rounded=0;whiteSpace=wrap;html=1;fontFamily=Helvetica;fontSize=12;fontColor=#000000;align=center;" parent="dNxyNK7c78bLwvsdeMH5-20" vertex="1">
          <mxGeometry x="120" y="40" width="120" height="40" as="geometry" />
        </mxCell>
        <mxCell id="-N3nTTwxGU15BjkVIk_7-28" value="&lt;font style=&quot;font-size: 9px;&quot;&gt;SignUpConfirmationEmail&lt;br&gt;&lt;i&gt;&lt;font color=&quot;#007fff&quot;&gt;&lt;b&gt;with CallbackURL link containing JWT token&lt;/b&gt;&lt;/font&gt;&lt;/i&gt;&lt;br&gt;&lt;/font&gt;" style="whiteSpace=wrap;html=1;fontColor=#000000;rounded=0;" parent="dNxyNK7c78bLwvsdeMH5-20" vertex="1">
          <mxGeometry x="805" y="40" width="120" height="50" as="geometry" />
        </mxCell>
        <mxCell id="-N3nTTwxGU15BjkVIk_7-34" value="&lt;font style=&quot;font-size: 9px;&quot;&gt;SignUpConfirmationScreen&lt;br&gt;&lt;i&gt;&lt;font color=&quot;#007fff&quot;&gt;&lt;b&gt;with Resend Email Link&lt;/b&gt;&lt;/font&gt;&lt;/i&gt;&lt;br&gt;&lt;/font&gt;" style="whiteSpace=wrap;html=1;fontColor=#000000;rounded=0;" parent="dNxyNK7c78bLwvsdeMH5-20" vertex="1">
          <mxGeometry x="570" y="40" width="120" height="40" as="geometry" />
        </mxCell>
        <mxCell id="-N3nTTwxGU15BjkVIk_7-37" value="&lt;font style=&quot;font-size: 9px;&quot;&gt;OnboardingInternalAuthScreen&lt;/font&gt;" style="whiteSpace=wrap;html=1;fontColor=#000000;rounded=0;" parent="dNxyNK7c78bLwvsdeMH5-20" vertex="1">
          <mxGeometry x="1070" y="40" width="140" height="40" as="geometry" />
        </mxCell>
        <mxCell id="-N3nTTwxGU15BjkVIk_7-38" value="&lt;font style=&quot;font-size: 9px;&quot;&gt;OnboardingExtAuthScreen&lt;/font&gt;" style="whiteSpace=wrap;html=1;fontColor=#000000;rounded=0;" parent="dNxyNK7c78bLwvsdeMH5-20" vertex="1">
          <mxGeometry x="2465" y="35" width="140" height="40" as="geometry" />
        </mxCell>
        <mxCell id="-N3nTTwxGU15BjkVIk_7-75" value="&lt;font style=&quot;font-size: 12px;&quot;&gt;HomeScreen&lt;br&gt;&lt;i&gt;&lt;font color=&quot;#00994d&quot;&gt;with Success Message&lt;/font&gt;&lt;/i&gt;&lt;br&gt;&lt;/font&gt;" style="whiteSpace=wrap;html=1;fontColor=#000000;rounded=0;" parent="dNxyNK7c78bLwvsdeMH5-20" vertex="1">
          <mxGeometry x="1370" y="40" width="140" height="40" as="geometry" />
        </mxCell>
        <mxCell id="-N3nTTwxGU15BjkVIk_7-25" value="&lt;b&gt;POST&lt;span style=&quot;background-color: rgb(255, 255, 255);&quot;&gt;&lt;br&gt;&lt;/span&gt;&lt;/b&gt;&lt;span style=&quot;border-color: var(--border-color); background-color: rgb(251, 251, 251);&quot;&gt;&lt;font color=&quot;#6600cc&quot;&gt;email address&lt;/font&gt;&lt;/span&gt;&lt;br style=&quot;border-color: var(--border-color); background-color: rgb(251, 251, 251);&quot;&gt;&lt;span style=&quot;border-color: var(--border-color);&quot;&gt;to &lt;b&gt;&lt;font color=&quot;#0000ff&quot;&gt;api/auth/signup&lt;/font&gt;&lt;/b&gt;&lt;/span&gt;" style="edgeStyle=orthogonalEdgeStyle;rounded=0;orthogonalLoop=1;jettySize=auto;html=1;" parent="dNxyNK7c78bLwvsdeMH5-19" source="-N3nTTwxGU15BjkVIk_7-15" target="-N3nTTwxGU15BjkVIk_7-24" edge="1">
          <mxGeometry x="-0.25" relative="1" as="geometry">
            <mxPoint as="offset" />
          </mxGeometry>
        </mxCell>
        <mxCell id="-N3nTTwxGU15BjkVIk_7-48" value="" style="edgeStyle=orthogonalEdgeStyle;rounded=0;orthogonalLoop=1;jettySize=auto;html=1;" parent="dNxyNK7c78bLwvsdeMH5-19" source="-N3nTTwxGU15BjkVIk_7-24" target="-N3nTTwxGU15BjkVIk_7-47" edge="1">
          <mxGeometry relative="1" as="geometry" />
        </mxCell>
        <mxCell id="-N3nTTwxGU15BjkVIk_7-49" value="&lt;b&gt;&lt;font color=&quot;#00994d&quot;&gt;HTTP 200&lt;/font&gt;&lt;/b&gt;&lt;br&gt;with user data&lt;br&gt;&quot;Email confirm required!&quot;" style="edgeLabel;html=1;align=center;verticalAlign=middle;resizable=0;points=[];" parent="-N3nTTwxGU15BjkVIk_7-48" vertex="1" connectable="0">
          <mxGeometry x="0.3402" y="-2" relative="1" as="geometry">
            <mxPoint x="-2" y="67" as="offset" />
          </mxGeometry>
        </mxCell>
        <mxCell id="-N3nTTwxGU15BjkVIk_7-51" value="" style="edgeStyle=orthogonalEdgeStyle;rounded=0;orthogonalLoop=1;jettySize=auto;html=1;entryX=0.25;entryY=0;entryDx=0;entryDy=0;" parent="dNxyNK7c78bLwvsdeMH5-19" source="-N3nTTwxGU15BjkVIk_7-47" target="-N3nTTwxGU15BjkVIk_7-31" edge="1">
          <mxGeometry relative="1" as="geometry">
            <mxPoint x="764.0303030303032" y="399.9999999999999" as="targetPoint" />
            <Array as="points">
              <mxPoint x="764" y="245" />
              <mxPoint x="764" y="440" />
              <mxPoint x="843" y="440" />
            </Array>
          </mxGeometry>
        </mxCell>
        <mxCell id="-N3nTTwxGU15BjkVIk_7-52" value="&lt;b&gt;POST&lt;br&gt;&lt;/b&gt;&lt;i&gt;email address &amp;amp; Callback URL&lt;/i&gt;&lt;br&gt;to &lt;b&gt;&lt;font color=&quot;#0000ff&quot;&gt;api/auth/login/email&lt;/font&gt;&lt;/b&gt;" style="edgeLabel;html=1;align=center;verticalAlign=middle;resizable=0;points=[];" parent="-N3nTTwxGU15BjkVIk_7-51" vertex="1" connectable="0">
          <mxGeometry x="0.1006" relative="1" as="geometry">
            <mxPoint y="-31" as="offset" />
          </mxGeometry>
        </mxCell>
        <mxCell id="-N3nTTwxGU15BjkVIk_7-61" value="" style="edgeStyle=orthogonalEdgeStyle;rounded=0;orthogonalLoop=1;jettySize=auto;html=1;exitX=0;exitY=0.5;exitDx=0;exitDy=0;entryX=0.25;entryY=0;entryDx=0;entryDy=0;" parent="dNxyNK7c78bLwvsdeMH5-19" source="-N3nTTwxGU15BjkVIk_7-40" target="-N3nTTwxGU15BjkVIk_7-60" edge="1">
          <mxGeometry relative="1" as="geometry">
            <Array as="points">
              <mxPoint x="1020" y="270" />
              <mxPoint x="1020" y="440" />
              <mxPoint x="1060" y="440" />
            </Array>
          </mxGeometry>
        </mxCell>
        <mxCell id="-N3nTTwxGU15BjkVIk_7-62" value="&lt;b&gt;GET&lt;/b&gt;&lt;br&gt;with JWT&lt;br&gt;request auth type&lt;br&gt;to &lt;b&gt;&lt;font color=&quot;#0000ff&quot;&gt;api/auth/type&lt;/font&gt;&lt;/b&gt;" style="edgeLabel;html=1;align=center;verticalAlign=middle;resizable=0;points=[];" parent="-N3nTTwxGU15BjkVIk_7-61" vertex="1" connectable="0">
          <mxGeometry x="-0.1584" y="-2" relative="1" as="geometry">
            <mxPoint as="offset" />
          </mxGeometry>
        </mxCell>
        <mxCell id="-N3nTTwxGU15BjkVIk_7-64" value="" style="edgeStyle=orthogonalEdgeStyle;rounded=0;orthogonalLoop=1;jettySize=auto;html=1;" parent="dNxyNK7c78bLwvsdeMH5-19" source="-N3nTTwxGU15BjkVIk_7-60" edge="1">
          <mxGeometry relative="1" as="geometry">
            <mxPoint x="1090" y="290" as="targetPoint" />
            <Array as="points">
              <mxPoint x="1110" y="340" />
              <mxPoint x="1090" y="340" />
              <mxPoint x="1090" y="290" />
            </Array>
          </mxGeometry>
        </mxCell>
        <mxCell id="-N3nTTwxGU15BjkVIk_7-65" value="&lt;b&gt;&lt;font color=&quot;#00994d&quot;&gt;HTTP 200&lt;/font&gt;&lt;/b&gt;&lt;br&gt;&lt;font color=&quot;#6600cc&quot;&gt;externalAuth&lt;/font&gt;&lt;br&gt;&lt;font style=&quot;font-size: 9px;&quot;&gt;(true/false)&lt;/font&gt;" style="edgeLabel;html=1;align=center;verticalAlign=middle;resizable=0;points=[];" parent="-N3nTTwxGU15BjkVIk_7-64" vertex="1" connectable="0">
          <mxGeometry x="0.2015" relative="1" as="geometry">
            <mxPoint y="26" as="offset" />
          </mxGeometry>
        </mxCell>
        <mxCell id="-N3nTTwxGU15BjkVIk_7-70" value="" style="edgeStyle=orthogonalEdgeStyle;rounded=0;orthogonalLoop=1;jettySize=auto;html=1;" parent="dNxyNK7c78bLwvsdeMH5-19" source="-N3nTTwxGU15BjkVIk_7-40" target="-N3nTTwxGU15BjkVIk_7-69" edge="1">
          <mxGeometry relative="1" as="geometry">
            <Array as="points">
              <mxPoint x="1120" y="330" />
              <mxPoint x="1300" y="330" />
            </Array>
          </mxGeometry>
        </mxCell>
        <mxCell id="-N3nTTwxGU15BjkVIk_7-71" value="&lt;b&gt;POST&lt;/b&gt;&lt;br&gt;&lt;font color=&quot;#6600cc&quot;&gt;firstName, lastName,&lt;br&gt;phoneNumber, password&lt;/font&gt;&lt;br&gt;&lt;i&gt;with JWT access token&lt;/i&gt;&lt;br&gt;to &lt;font color=&quot;#0000ff&quot;&gt;&lt;b&gt;api/users/me/onboard&lt;/b&gt;&lt;/font&gt;" style="edgeLabel;html=1;align=center;verticalAlign=middle;resizable=0;points=[];" parent="-N3nTTwxGU15BjkVIk_7-70" vertex="1" connectable="0">
          <mxGeometry x="0.053" y="3" relative="1" as="geometry">
            <mxPoint x="25" y="43" as="offset" />
          </mxGeometry>
        </mxCell>
        <mxCell id="-N3nTTwxGU15BjkVIk_7-73" value="" style="edgeStyle=orthogonalEdgeStyle;rounded=0;orthogonalLoop=1;jettySize=auto;html=1;" parent="dNxyNK7c78bLwvsdeMH5-19" source="-N3nTTwxGU15BjkVIk_7-69" target="-N3nTTwxGU15BjkVIk_7-72" edge="1">
          <mxGeometry relative="1" as="geometry" />
        </mxCell>
        <mxCell id="-N3nTTwxGU15BjkVIk_7-74" value="&lt;b&gt;&lt;font color=&quot;#00994d&quot;&gt;HTTP 200&lt;/font&gt;&lt;/b&gt;&lt;br&gt;&lt;font color=&quot;#6600cc&quot;&gt;user&lt;/font&gt;&lt;br&gt;&quot;You are now onboarded&quot;" style="edgeLabel;html=1;align=center;verticalAlign=middle;resizable=0;points=[];" parent="-N3nTTwxGU15BjkVIk_7-73" vertex="1" connectable="0">
          <mxGeometry x="0.1597" relative="1" as="geometry">
            <mxPoint y="-59" as="offset" />
          </mxGeometry>
        </mxCell>
        <mxCell id="-N3nTTwxGU15BjkVIk_7-42" style="edgeStyle=orthogonalEdgeStyle;rounded=0;orthogonalLoop=1;jettySize=auto;html=1;exitX=0.5;exitY=1;exitDx=0;exitDy=0;endArrow=none;endFill=0;dashed=1;entryX=0.75;entryY=0;entryDx=0;entryDy=0;" parent="dNxyNK7c78bLwvsdeMH5-19" source="-N3nTTwxGU15BjkVIk_7-37" target="-N3nTTwxGU15BjkVIk_7-40" edge="1">
          <mxGeometry relative="1" as="geometry">
            <mxPoint x="1200" y="250" as="targetPoint" />
            <Array as="points">
              <mxPoint x="1160" y="80" />
            </Array>
          </mxGeometry>
        </mxCell>
        <mxCell id="-N3nTTwxGU15BjkVIk_7-66" value="externalAuth: false" style="edgeLabel;html=1;align=center;verticalAlign=middle;resizable=0;points=[];" parent="-N3nTTwxGU15BjkVIk_7-42" vertex="1" connectable="0">
          <mxGeometry x="-0.5008" relative="1" as="geometry">
            <mxPoint as="offset" />
          </mxGeometry>
        </mxCell>
        <mxCell id="-N3nTTwxGU15BjkVIk_7-76" style="edgeStyle=orthogonalEdgeStyle;rounded=0;orthogonalLoop=1;jettySize=auto;html=1;exitX=0.5;exitY=1;exitDx=0;exitDy=0;entryX=0.5;entryY=0;entryDx=0;entryDy=0;endArrow=none;endFill=0;dashed=1;" parent="dNxyNK7c78bLwvsdeMH5-19" source="-N3nTTwxGU15BjkVIk_7-75" target="-N3nTTwxGU15BjkVIk_7-72" edge="1">
          <mxGeometry relative="1" as="geometry">
            <Array as="points">
              <mxPoint x="1460" y="90" />
            </Array>
          </mxGeometry>
        </mxCell>
        <mxCell id="-N3nTTwxGU15BjkVIk_7-53" style="edgeStyle=orthogonalEdgeStyle;rounded=0;orthogonalLoop=1;jettySize=auto;html=1;exitX=0.5;exitY=1;exitDx=0;exitDy=0;entryX=0.5;entryY=0;entryDx=0;entryDy=0;endArrow=none;endFill=0;dashed=1;" parent="dNxyNK7c78bLwvsdeMH5-19" source="-N3nTTwxGU15BjkVIk_7-34" target="-N3nTTwxGU15BjkVIk_7-47" edge="1">
          <mxGeometry relative="1" as="geometry">
            <Array as="points">
              <mxPoint x="650" y="140" />
              <mxPoint x="614" y="140" />
            </Array>
          </mxGeometry>
        </mxCell>
        <mxCell id="dNxyNK7c78bLwvsdeMH5-21" value="Frontend Logic" style="swimlane;html=1;startSize=20;horizontal=0;" parent="dNxyNK7c78bLwvsdeMH5-19" vertex="1">
          <mxGeometry x="20" y="160" width="2900" height="280" as="geometry" />
        </mxCell>
        <mxCell id="-N3nTTwxGU15BjkVIk_7-16" value="Internal Auth" style="edgeStyle=orthogonalEdgeStyle;rounded=0;orthogonalLoop=1;jettySize=auto;html=1;" parent="dNxyNK7c78bLwvsdeMH5-21" source="-N3nTTwxGU15BjkVIk_7-13" target="-N3nTTwxGU15BjkVIk_7-15" edge="1">
          <mxGeometry relative="1" as="geometry">
            <mxPoint as="offset" />
          </mxGeometry>
        </mxCell>
        <mxCell id="g8M-Z3O3hfqSgjoTpjKX-5" style="edgeStyle=orthogonalEdgeStyle;rounded=0;orthogonalLoop=1;jettySize=auto;html=1;exitX=1;exitY=1;exitDx=0;exitDy=0;entryX=0.75;entryY=0;entryDx=0;entryDy=0;" parent="dNxyNK7c78bLwvsdeMH5-21" source="-N3nTTwxGU15BjkVIk_7-13" target="g8M-Z3O3hfqSgjoTpjKX-3" edge="1">
          <mxGeometry relative="1" as="geometry">
            <Array as="points">
              <mxPoint x="279" y="20" />
            </Array>
          </mxGeometry>
        </mxCell>
        <mxCell id="g8M-Z3O3hfqSgjoTpjKX-6" value="Google" style="edgeLabel;html=1;align=center;verticalAlign=middle;resizable=0;points=[];" parent="g8M-Z3O3hfqSgjoTpjKX-5" vertex="1" connectable="0">
          <mxGeometry x="-0.0348" y="2" relative="1" as="geometry">
            <mxPoint as="offset" />
          </mxGeometry>
        </mxCell>
        <mxCell id="-N3nTTwxGU15BjkVIk_7-13" value="SignUp&lt;br&gt;Method?" style="rhombus;whiteSpace=wrap;html=1;fontColor=#000000;rounded=0;" parent="dNxyNK7c78bLwvsdeMH5-21" vertex="1">
          <mxGeometry x="140" y="-40" width="80" height="80" as="geometry" />
        </mxCell>
        <mxCell id="-N3nTTwxGU15BjkVIk_7-15" value="Enter Email" style="whiteSpace=wrap;html=1;fontColor=#000000;rounded=0;" parent="dNxyNK7c78bLwvsdeMH5-21" vertex="1">
          <mxGeometry x="350" y="120" width="120" height="40" as="geometry" />
        </mxCell>
        <mxCell id="-N3nTTwxGU15BjkVIk_7-40" value="&lt;span style=&quot;font-size: 10px;&quot;&gt;Conditionally show proper Onboarding route&lt;/span&gt;" style="whiteSpace=wrap;html=1;fontColor=#000000;rounded=0;" parent="dNxyNK7c78bLwvsdeMH5-21" vertex="1">
          <mxGeometry x="1020" y="90" width="160" height="40" as="geometry" />
        </mxCell>
        <mxCell id="-N3nTTwxGU15BjkVIk_7-47" value="1. Generate Request&lt;br&gt;for Confirmation Email sending&lt;br&gt;2. Route to SUC Screen&lt;br&gt;(Manual resend possible)" style="whiteSpace=wrap;html=1;fontColor=#000000;rounded=0;" parent="dNxyNK7c78bLwvsdeMH5-21" vertex="1">
          <mxGeometry x="504" y="50" width="180" height="70" as="geometry" />
        </mxCell>
        <mxCell id="-N3nTTwxGU15BjkVIk_7-72" value="Redirect to Home&lt;br&gt;with Success Message" style="whiteSpace=wrap;html=1;fontColor=#000000;rounded=0;" parent="dNxyNK7c78bLwvsdeMH5-21" vertex="1">
          <mxGeometry x="1370" y="130" width="140" height="40" as="geometry" />
        </mxCell>
        <mxCell id="g8M-Z3O3hfqSgjoTpjKX-3" value="&lt;font style=&quot;font-size: 11px;&quot;&gt;&lt;a href=&quot;https://accounts.google.com/o/oauth2/v2/auth?redirect_uri=https://developers.google.com/oauthplayground&amp;amp;prompt=consent&amp;amp;response_type=code&amp;amp;client_id=407408718192.apps.googleusercontent.com&amp;amp;scope=https://www.googleapis.com/auth/userinfo.email+https://www.googleapis.com/auth/userinfo.profile&amp;amp;access_type=offline&quot;&gt;Send&lt;/a&gt;&amp;nbsp;&lt;b&gt;GET&lt;/b&gt; to Google:&lt;br style=&quot;border-color: var(--border-color);&quot;&gt;&lt;/font&gt;&lt;ol style=&quot;font-size: 11px;&quot;&gt;&lt;li&gt;&lt;span style=&quot;background-color: initial;&quot;&gt;&lt;font style=&quot;font-size: 11px;&quot;&gt;Client ID&lt;/font&gt;&lt;/span&gt;&lt;/li&gt;&lt;li&gt;&lt;span style=&quot;background-color: initial;&quot;&gt;&lt;font style=&quot;font-size: 11px;&quot;&gt;Redirect URI&lt;/font&gt;&lt;/span&gt;&lt;/li&gt;&lt;li&gt;&lt;span style=&quot;background-color: initial;&quot;&gt;&lt;font style=&quot;font-size: 11px;&quot;&gt;Scopes (data request)&lt;/font&gt;&lt;/span&gt;&lt;/li&gt;&lt;/ol&gt;" style="rounded=0;whiteSpace=wrap;html=1;align=left;" parent="dNxyNK7c78bLwvsdeMH5-21" vertex="1">
          <mxGeometry x="110" y="50" width="225" height="80" as="geometry" />
        </mxCell>
        <mxCell id="g8M-Z3O3hfqSgjoTpjKX-8" value="1. Listen on Redirect URI&lt;br&gt;2. Handle Request from Google&lt;br&gt;3. Send request to Google" style="whiteSpace=wrap;html=1;rounded=0;" parent="dNxyNK7c78bLwvsdeMH5-21" vertex="1">
          <mxGeometry x="1580" y="120" width="220" height="60" as="geometry" />
        </mxCell>
        <mxCell id="g8M-Z3O3hfqSgjoTpjKX-14" value="1. Listen to Redirect URI&lt;br&gt;2. Handle &lt;b&gt;access token&lt;/b&gt; &amp;amp; user data from Google" style="whiteSpace=wrap;html=1;rounded=0;" parent="dNxyNK7c78bLwvsdeMH5-21" vertex="1">
          <mxGeometry x="2030" y="102.5" width="170" height="55" as="geometry" />
        </mxCell>
        <mxCell id="g8M-Z3O3hfqSgjoTpjKX-38" value="" style="edgeStyle=orthogonalEdgeStyle;rounded=0;orthogonalLoop=1;jettySize=auto;html=1;endArrow=openThin;endFill=0;dashed=1;" parent="dNxyNK7c78bLwvsdeMH5-21" source="g8M-Z3O3hfqSgjoTpjKX-34" target="g8M-Z3O3hfqSgjoTpjKX-37" edge="1">
          <mxGeometry relative="1" as="geometry" />
        </mxCell>
        <mxCell id="g8M-Z3O3hfqSgjoTpjKX-34" value="1. Handle response&lt;br&gt;2. Redirect to ExtAuthOnboarding" style="whiteSpace=wrap;html=1;rounded=0;" parent="dNxyNK7c78bLwvsdeMH5-21" vertex="1">
          <mxGeometry x="2475" y="97.5" width="120" height="60" as="geometry" />
        </mxCell>
        <mxCell id="g8M-Z3O3hfqSgjoTpjKX-37" value="Handle Onboarding Form" style="rounded=0;whiteSpace=wrap;html=1;" parent="dNxyNK7c78bLwvsdeMH5-21" vertex="1">
          <mxGeometry x="2660" y="102.5" width="120" height="50" as="geometry" />
        </mxCell>
        <mxCell id="-N3nTTwxGU15BjkVIk_7-29" value="" style="edgeStyle=orthogonalEdgeStyle;rounded=0;orthogonalLoop=1;jettySize=auto;html=1;dashed=1;endArrow=none;endFill=0;exitX=0.5;exitY=0;exitDx=0;exitDy=0;" parent="dNxyNK7c78bLwvsdeMH5-19" source="-N3nTTwxGU15BjkVIk_7-31" target="-N3nTTwxGU15BjkVIk_7-28" edge="1">
          <mxGeometry relative="1" as="geometry" />
        </mxCell>
        <mxCell id="-N3nTTwxGU15BjkVIk_7-68" value="JWT token&lt;br&gt;Callback URL" style="edgeLabel;html=1;align=center;verticalAlign=middle;resizable=0;points=[];" parent="-N3nTTwxGU15BjkVIk_7-29" vertex="1" connectable="0">
          <mxGeometry x="-0.1645" relative="1" as="geometry">
            <mxPoint y="-57" as="offset" />
          </mxGeometry>
        </mxCell>
        <mxCell id="-N3nTTwxGU15BjkVIk_7-44" style="edgeStyle=orthogonalEdgeStyle;rounded=0;orthogonalLoop=1;jettySize=auto;html=1;exitX=0.75;exitY=1;exitDx=0;exitDy=0;entryX=0.5;entryY=0;entryDx=0;entryDy=0;" parent="dNxyNK7c78bLwvsdeMH5-19" source="-N3nTTwxGU15BjkVIk_7-28" target="-N3nTTwxGU15BjkVIk_7-40" edge="1">
          <mxGeometry relative="1" as="geometry">
            <mxPoint x="950" y="250" as="targetPoint" />
            <Array as="points">
              <mxPoint x="685" y="200" />
              <mxPoint x="890" y="200" />
            </Array>
          </mxGeometry>
        </mxCell>
        <mxCell id="-N3nTTwxGU15BjkVIk_7-56" value="Follow Callback URL&lt;br style=&quot;border-color: var(--border-color);&quot;&gt;To Onboarding&lt;br style=&quot;border-color: var(--border-color);&quot;&gt;&lt;i style=&quot;border-color: var(--border-color);&quot;&gt;(auth with JWT)&lt;/i&gt;" style="edgeLabel;html=1;align=center;verticalAlign=middle;resizable=0;points=[];" parent="-N3nTTwxGU15BjkVIk_7-44" vertex="1" connectable="0">
          <mxGeometry x="0.2038" relative="1" as="geometry">
            <mxPoint x="-5" as="offset" />
          </mxGeometry>
        </mxCell>
        <mxCell id="dNxyNK7c78bLwvsdeMH5-22" value="Backend Logic" style="swimlane;html=1;startSize=20;horizontal=0;" parent="dNxyNK7c78bLwvsdeMH5-19" vertex="1">
          <mxGeometry x="20" y="440" width="2900" height="190" as="geometry" />
        </mxCell>
        <mxCell id="-N3nTTwxGU15BjkVIk_7-24" value="Create User in DB" style="whiteSpace=wrap;html=1;fontColor=#000000;rounded=0;" parent="dNxyNK7c78bLwvsdeMH5-22" vertex="1">
          <mxGeometry x="350" y="60" width="120" height="40" as="geometry" />
        </mxCell>
        <mxCell id="-N3nTTwxGU15BjkVIk_7-31" value="Send &lt;b&gt;Email&lt;/b&gt; with&lt;br&gt;&lt;i&gt;JWT token&lt;/i&gt;&amp;nbsp;&amp;amp; Callback URL" style="rounded=0;whiteSpace=wrap;html=1;" parent="dNxyNK7c78bLwvsdeMH5-22" vertex="1">
          <mxGeometry x="780" y="60" width="170" height="40" as="geometry" />
        </mxCell>
        <mxCell id="-N3nTTwxGU15BjkVIk_7-60" value="Handle Request" style="whiteSpace=wrap;html=1;fontColor=#000000;rounded=0;" parent="dNxyNK7c78bLwvsdeMH5-22" vertex="1">
          <mxGeometry x="1010" y="60" width="120" height="40" as="geometry" />
        </mxCell>
        <mxCell id="-N3nTTwxGU15BjkVIk_7-69" value="1. Store user info in DB&lt;br&gt;2. emailConfirmed: true" style="whiteSpace=wrap;html=1;fontColor=#000000;rounded=0;" parent="dNxyNK7c78bLwvsdeMH5-22" vertex="1">
          <mxGeometry x="1180" y="60" width="160" height="40" as="geometry" />
        </mxCell>
        <mxCell id="g8M-Z3O3hfqSgjoTpjKX-18" value="1. Handle Access Token&lt;br&gt;2. Get User Info from Google" style="whiteSpace=wrap;html=1;rounded=0;" parent="dNxyNK7c78bLwvsdeMH5-22" vertex="1">
          <mxGeometry x="2191" y="45" width="180" height="60" as="geometry" />
        </mxCell>
        <mxCell id="g8M-Z3O3hfqSgjoTpjKX-31" value="1. Throw away Access Token&lt;br&gt;2. Create JWT token&lt;br&gt;3. Respond to Frontend" style="whiteSpace=wrap;html=1;rounded=0;" parent="dNxyNK7c78bLwvsdeMH5-22" vertex="1">
          <mxGeometry x="2440" y="45" width="190" height="60" as="geometry" />
        </mxCell>
        <mxCell id="-N3nTTwxGU15BjkVIk_7-5" value="Google Auth" style="swimlane;html=1;startSize=20;horizontal=0;" parent="dNxyNK7c78bLwvsdeMH5-19" vertex="1">
          <mxGeometry x="20" y="630" width="2900" height="130" as="geometry" />
        </mxCell>
        <mxCell id="-N3nTTwxGU15BjkVIk_7-17" value="Google (Login)&lt;br&gt;&amp;amp; Consent Screen" style="rounded=0;whiteSpace=wrap;html=1;" parent="-N3nTTwxGU15BjkVIk_7-5" vertex="1">
          <mxGeometry x="90" y="40" width="120" height="40" as="geometry" />
        </mxCell>
        <mxCell id="g8M-Z3O3hfqSgjoTpjKX-11" value="Login to Google" style="whiteSpace=wrap;html=1;rounded=0;" parent="-N3nTTwxGU15BjkVIk_7-5" vertex="1">
          <mxGeometry x="1860" y="80" width="160" height="40" as="geometry" />
        </mxCell>
        <mxCell id="g8M-Z3O3hfqSgjoTpjKX-26" value="1. Handle request&lt;br&gt;2. Respond with User Info" style="rounded=0;whiteSpace=wrap;html=1;" parent="-N3nTTwxGU15BjkVIk_7-5" vertex="1">
          <mxGeometry x="2196.5" y="40" width="169" height="60" as="geometry" />
        </mxCell>
        <mxCell id="g8M-Z3O3hfqSgjoTpjKX-17" value="&lt;h1 style=&quot;font-size: 6px;&quot;&gt;&lt;font style=&quot;font-size: 6px; font-weight: normal;&quot;&gt;{&lt;br&gt;  &quot;access_token&quot;: &quot;ya29.a0AfB_byCeKeZNeU32r9zIDZK7JIIo9u-iG3KSR8Q_rXuU0iEPWfpWdWNTkzw8NZ_4BR-zmkGvGv43anOyJ_CzB2NvPaCKTuKL5HNcxOQtU-EybAX6J5EDyNYhz2Z8YDfeNGwq_S-QxtJj3leG4Zf0VTBKbfU2fhxJ4lxAaCgYKAcYSARMSFQGOcNnCZJMnxkdULKQruY1Y79gWaA0171&quot;, &lt;br&gt;  &quot;id_token&quot;: &quot;eyJhbGciOiJSUzI1NiIsImtpZCI6ImEwNmFmMGI2OGEyMTE5ZDY5MmNhYzRhYmY0MTVmZjM3ODgxMzZmNjUiLCJ0eXAiOiJKV1QifQ.eyJpc3MiOiJodHRwczovL2FjY291bnRzLmdvb2dsZS5jb20iLCJhenAiOiI0MDc0MDg3MTgxOTIuYXBwcy5nb29nbGV1c2VyY29udGVudC5jb20iLCJhdWQiOiI0MDc0MDg3MTgxOTIuYXBwcy5nb29nbGV1c2VyY29udGVudC5jb20iLCJzdWIiOiIxMTczMjg4NTk3MjQ3NTI4MjMxOTMiLCJlbWFpbCI6InN6YWJvZ2FsaWFrb3NAZ21haWwuY29tIiwiZW1haWxfdmVyaWZpZWQiOnRydWUsImF0X2hhc2giOiJITHhNcHByU1VwcHdTMGFfejg3T19nIiwibmFtZSI6IkFrb3MgU3phYm8tR2FsaSIsInBpY3R1cmUiOiJodHRwczovL2xoMy5nb29nbGV1c2VyY29udGVudC5jb20vYS9BQ2c4b2NJdnlFZWJUa3FtV3pHZ255RWI4QnFWenJjb192Tl9Ed1NCZl9CNTJUc0s9czk2LWMiLCJnaXZlbl9uYW1lIjoiQWtvcyIsImZhbWlseV9uYW1lIjoiU3phYm8tR2FsaSIsImxvY2FsZSI6ImVuIiwiaWF0IjoxNjk4NjExNDgzLCJleHAiOjE2OTg2MTUwODN9.bQZK5ZLGFJHauRufFb1GMVjeO0kGEaQxWdxsC1h_8U9WxrtX8sK1d3Flt5drDK_6yAM59ViNDSHRoijfw-DCrpYjyoUO6ALPWS000CcuOKA8sYw9BinQ7kkN1TFtYULPBmtZsQIea39w9s2qNkIvZtT-lVS4BVTleN9lkhwM9-gv9lcc_qSL4BC4YyrmROXgg55K0VSuSZ09DtTo7YSOeb3iUofrFCYCJdnm9K-Enx-M1-CcUPIIGT2SD5EHB-wNsXPZm4Si6_H-pDZwj1RhVFiA82HZthbPNwlXC9d9HXhHYMATEKyK4JiK7oZwusnO5vedlR10afDQjoMymjvQdQ&quot;, &lt;br&gt;  &quot;expires_in&quot;: 3599, &lt;br&gt;  &quot;token_type&quot;: &quot;Bearer&quot;, &lt;br&gt;  &quot;scope&quot;: &quot;https://www.googleapis.com/auth/userinfo.profile openid https://www.googleapis.com/auth/userinfo.email&quot;, &lt;br&gt;  &quot;refresh_token&quot;: &quot;1//04IcQNwrw0y9nCgYIARAAGAQSNwF-L9IrBNBpTTVnQ6fetTsTpFcacA3UC2ZO53vxU0OAS7M3N8ic5T7CgDlsMdnDYQegCeWtbKM&quot;&lt;br&gt;}&lt;/font&gt;&lt;/h1&gt;" style="text;html=1;strokeColor=none;fillColor=none;spacing=5;spacingTop=-20;whiteSpace=wrap;overflow=hidden;rounded=0;" parent="-N3nTTwxGU15BjkVIk_7-5" vertex="1">
          <mxGeometry x="1990" y="10" width="80" height="70" as="geometry" />
        </mxCell>
        <mxCell id="-N3nTTwxGU15BjkVIk_7-9" value="Facebook Auth" style="swimlane;html=1;startSize=20;horizontal=0;" parent="dNxyNK7c78bLwvsdeMH5-19" vertex="1">
          <mxGeometry x="20" y="760" width="2900" height="140" as="geometry" />
        </mxCell>
        <mxCell id="-N3nTTwxGU15BjkVIk_7-21" value="Login to Facebook" style="rounded=0;whiteSpace=wrap;html=1;" parent="-N3nTTwxGU15BjkVIk_7-9" vertex="1">
          <mxGeometry x="90" y="30" width="120" height="40" as="geometry" />
        </mxCell>
        <mxCell id="-N3nTTwxGU15BjkVIk_7-14" value="" style="edgeStyle=orthogonalEdgeStyle;rounded=0;orthogonalLoop=1;jettySize=auto;html=1;dashed=1;endArrow=none;endFill=0;" parent="dNxyNK7c78bLwvsdeMH5-19" source="dNxyNK7c78bLwvsdeMH5-24" target="-N3nTTwxGU15BjkVIk_7-13" edge="1">
          <mxGeometry relative="1" as="geometry" />
        </mxCell>
        <mxCell id="-N3nTTwxGU15BjkVIk_7-22" style="edgeStyle=orthogonalEdgeStyle;rounded=0;orthogonalLoop=1;jettySize=auto;html=1;exitX=0;exitY=0.5;exitDx=0;exitDy=0;entryX=0;entryY=0;entryDx=0;entryDy=0;startArrow=classic;startFill=1;endArrow=none;endFill=0;" parent="dNxyNK7c78bLwvsdeMH5-19" source="-N3nTTwxGU15BjkVIk_7-21" target="-N3nTTwxGU15BjkVIk_7-13" edge="1">
          <mxGeometry relative="1" as="geometry">
            <Array as="points">
              <mxPoint x="70" y="790" />
              <mxPoint x="70" y="140" />
            </Array>
          </mxGeometry>
        </mxCell>
        <mxCell id="-N3nTTwxGU15BjkVIk_7-23" value="Facebook" style="edgeLabel;html=1;align=center;verticalAlign=middle;resizable=0;points=[];" parent="-N3nTTwxGU15BjkVIk_7-22" vertex="1" connectable="0">
          <mxGeometry x="-0.0707" y="-1" relative="1" as="geometry">
            <mxPoint x="39" y="-382" as="offset" />
          </mxGeometry>
        </mxCell>
        <mxCell id="g8M-Z3O3hfqSgjoTpjKX-7" style="edgeStyle=orthogonalEdgeStyle;rounded=0;orthogonalLoop=1;jettySize=auto;html=1;exitX=1;exitY=1;exitDx=0;exitDy=0;entryX=0.5;entryY=0;entryDx=0;entryDy=0;" parent="dNxyNK7c78bLwvsdeMH5-19" source="g8M-Z3O3hfqSgjoTpjKX-3" target="-N3nTTwxGU15BjkVIk_7-17" edge="1">
          <mxGeometry relative="1" as="geometry">
            <Array as="points">
              <mxPoint x="355" y="590" />
              <mxPoint x="170" y="590" />
            </Array>
          </mxGeometry>
        </mxCell>
        <mxCell id="g8M-Z3O3hfqSgjoTpjKX-9" value="" style="edgeStyle=orthogonalEdgeStyle;rounded=0;orthogonalLoop=1;jettySize=auto;html=1;" parent="dNxyNK7c78bLwvsdeMH5-19" source="-N3nTTwxGU15BjkVIk_7-17" target="g8M-Z3O3hfqSgjoTpjKX-8" edge="1">
          <mxGeometry relative="1" as="geometry" />
        </mxCell>
        <mxCell id="g8M-Z3O3hfqSgjoTpjKX-10" value="&lt;b&gt;GET &lt;/b&gt;to Redirect URI (in URL:)&lt;br&gt;get &#39;Exchange Authorization Code for Tokens&#39; (valid for 60sec)&lt;br&gt;Prompt with Consent from User&lt;br&gt;&lt;div style=&quot;text-align: left;&quot;&gt;&lt;span style=&quot;font-size: 8px;&quot;&gt;or &lt;b&gt;access denied&lt;/b&gt;&lt;/span&gt;&lt;/div&gt;&lt;font style=&quot;font-size: 8px;&quot;&gt;&lt;div style=&quot;text-align: left;&quot;&gt;{&lt;/div&gt;&lt;/font&gt;&lt;div style=&quot;text-align: left; font-size: 8px;&quot;&gt;&lt;font style=&quot;font-size: 8px;&quot;&gt;&amp;nbsp; &amp;nbsp; &quot;error&quot;: &quot;access_denied&quot;,&lt;/font&gt;&lt;/div&gt;&lt;div style=&quot;text-align: left; font-size: 8px;&quot;&gt;&lt;font style=&quot;font-size: 8px;&quot;&gt;&amp;nbsp; &amp;nbsp; &quot;error_description&quot;: &quot;The user denied the request for access.&quot;&lt;/font&gt;&lt;/div&gt;&lt;div style=&quot;text-align: left; font-size: 8px;&quot;&gt;&lt;font style=&quot;font-size: 8px;&quot;&gt;}&lt;/font&gt;&lt;/div&gt;" style="edgeLabel;html=1;align=center;verticalAlign=middle;resizable=0;points=[];labelBorderColor=#999999;" parent="g8M-Z3O3hfqSgjoTpjKX-9" vertex="1" connectable="0">
          <mxGeometry x="0.8382" y="2" relative="1" as="geometry">
            <mxPoint x="-168" y="202" as="offset" />
          </mxGeometry>
        </mxCell>
        <mxCell id="g8M-Z3O3hfqSgjoTpjKX-12" value="" style="edgeStyle=orthogonalEdgeStyle;rounded=0;orthogonalLoop=1;jettySize=auto;html=1;" parent="dNxyNK7c78bLwvsdeMH5-19" source="g8M-Z3O3hfqSgjoTpjKX-8" target="g8M-Z3O3hfqSgjoTpjKX-11" edge="1">
          <mxGeometry relative="1" as="geometry" />
        </mxCell>
        <mxCell id="g8M-Z3O3hfqSgjoTpjKX-13" value="&lt;b&gt;POST&lt;/b&gt;&lt;br&gt;&lt;font color=&quot;#6600cc&quot;&gt;new Redirect URI&lt;br&gt;ExAuthCode&lt;br&gt;Client Secret (stored in Frontend)&lt;/font&gt;&lt;br&gt;to &lt;b&gt;&lt;font color=&quot;#0000ff&quot;&gt;oauth2.googleapis.com/token&lt;/font&gt;&lt;/b&gt;" style="edgeLabel;html=1;align=center;verticalAlign=middle;resizable=0;points=[];labelBorderColor=#999999;" parent="g8M-Z3O3hfqSgjoTpjKX-12" vertex="1" connectable="0">
          <mxGeometry x="0.2838" y="3" relative="1" as="geometry">
            <mxPoint x="-3" y="-134" as="offset" />
          </mxGeometry>
        </mxCell>
        <mxCell id="g8M-Z3O3hfqSgjoTpjKX-15" value="" style="edgeStyle=orthogonalEdgeStyle;rounded=0;orthogonalLoop=1;jettySize=auto;html=1;" parent="dNxyNK7c78bLwvsdeMH5-19" source="g8M-Z3O3hfqSgjoTpjKX-11" target="g8M-Z3O3hfqSgjoTpjKX-14" edge="1">
          <mxGeometry relative="1" as="geometry" />
        </mxCell>
        <mxCell id="g8M-Z3O3hfqSgjoTpjKX-16" value="&lt;b&gt;POST&lt;/b&gt;&lt;br&gt;&lt;font color=&quot;#7f00ff&quot;&gt;Redirect URI&lt;br&gt;Access Token&lt;/font&gt;&lt;br&gt;to &lt;b&gt;&lt;font color=&quot;#0000ff&quot;&gt;Redirect URI&lt;/font&gt;&lt;/b&gt;" style="edgeLabel;html=1;align=center;verticalAlign=middle;resizable=0;points=[];labelBorderColor=#999999;" parent="g8M-Z3O3hfqSgjoTpjKX-15" vertex="1" connectable="0">
          <mxGeometry x="0.2485" y="-2" relative="1" as="geometry">
            <mxPoint x="-2" y="147" as="offset" />
          </mxGeometry>
        </mxCell>
        <mxCell id="g8M-Z3O3hfqSgjoTpjKX-19" value="" style="edgeStyle=orthogonalEdgeStyle;rounded=0;orthogonalLoop=1;jettySize=auto;html=1;" parent="dNxyNK7c78bLwvsdeMH5-19" source="g8M-Z3O3hfqSgjoTpjKX-14" target="g8M-Z3O3hfqSgjoTpjKX-18" edge="1">
          <mxGeometry relative="1" as="geometry">
            <Array as="points">
              <mxPoint x="2160" y="370" />
              <mxPoint x="2300" y="370" />
            </Array>
          </mxGeometry>
        </mxCell>
        <mxCell id="g8M-Z3O3hfqSgjoTpjKX-20" value="&lt;b&gt;POST&lt;/b&gt;&lt;br&gt;&lt;font color=&quot;#7f00ff&quot;&gt;Access Token&lt;/font&gt;&lt;br&gt;to &lt;b style=&quot;&quot;&gt;&lt;font style=&quot;background-color: rgb(255, 255, 255);&quot; color=&quot;#0000ff&quot;&gt;api/auth/google&lt;/font&gt;&lt;/b&gt;" style="edgeLabel;html=1;align=center;verticalAlign=middle;resizable=0;points=[];" parent="g8M-Z3O3hfqSgjoTpjKX-19" vertex="1" connectable="0">
          <mxGeometry x="0.1126" y="-2" relative="1" as="geometry">
            <mxPoint x="-49" as="offset" />
          </mxGeometry>
        </mxCell>
        <mxCell id="g8M-Z3O3hfqSgjoTpjKX-25" style="edgeStyle=orthogonalEdgeStyle;rounded=0;orthogonalLoop=1;jettySize=auto;html=1;exitX=0.5;exitY=1;exitDx=0;exitDy=0;" parent="dNxyNK7c78bLwvsdeMH5-19" source="g8M-Z3O3hfqSgjoTpjKX-18" target="g8M-Z3O3hfqSgjoTpjKX-26" edge="1">
          <mxGeometry relative="1" as="geometry">
            <mxPoint x="2300.2" y="660" as="targetPoint" />
          </mxGeometry>
        </mxCell>
        <mxCell id="g8M-Z3O3hfqSgjoTpjKX-27" value="&lt;b&gt;GET&lt;/b&gt;&lt;br&gt;&lt;font color=&quot;#7f00ff&quot;&gt;Access Token (in Authorization Header &quot;Bearer&quot;)&lt;br&gt;&lt;/font&gt;&lt;font color=&quot;#0000ff&quot;&gt;https://www.googleapis.com/oauth2/v2/userinfo&lt;/font&gt;" style="edgeLabel;html=1;align=center;verticalAlign=middle;resizable=0;points=[];" parent="g8M-Z3O3hfqSgjoTpjKX-25" vertex="1" connectable="0">
          <mxGeometry x="-0.2314" y="1" relative="1" as="geometry">
            <mxPoint x="-1" y="-3" as="offset" />
          </mxGeometry>
        </mxCell>
        <mxCell id="g8M-Z3O3hfqSgjoTpjKX-32" value="" style="edgeStyle=orthogonalEdgeStyle;rounded=0;orthogonalLoop=1;jettySize=auto;html=1;" parent="dNxyNK7c78bLwvsdeMH5-19" source="g8M-Z3O3hfqSgjoTpjKX-26" target="g8M-Z3O3hfqSgjoTpjKX-31" edge="1">
          <mxGeometry relative="1" as="geometry" />
        </mxCell>
        <mxCell id="g8M-Z3O3hfqSgjoTpjKX-33" value="&lt;b&gt;Response to GET&lt;/b&gt;&lt;br&gt;&lt;font color=&quot;#7f00ff&quot;&gt;user info&lt;/font&gt;" style="edgeLabel;html=1;align=center;verticalAlign=middle;resizable=0;points=[];" parent="g8M-Z3O3hfqSgjoTpjKX-32" vertex="1" connectable="0">
          <mxGeometry x="0.714" y="-1" relative="1" as="geometry">
            <mxPoint as="offset" />
          </mxGeometry>
        </mxCell>
        <mxCell id="g8M-Z3O3hfqSgjoTpjKX-35" value="" style="edgeStyle=orthogonalEdgeStyle;rounded=0;orthogonalLoop=1;jettySize=auto;html=1;" parent="dNxyNK7c78bLwvsdeMH5-19" source="g8M-Z3O3hfqSgjoTpjKX-31" target="g8M-Z3O3hfqSgjoTpjKX-34" edge="1">
          <mxGeometry relative="1" as="geometry" />
        </mxCell>
        <mxCell id="g8M-Z3O3hfqSgjoTpjKX-36" value="&lt;b&gt;Response to POST&lt;/b&gt;&lt;br&gt;&lt;font color=&quot;#9933ff&quot;&gt;own JWT token&lt;br&gt;&lt;/font&gt;(+store in HTTPOnly Cookie)" style="edgeLabel;html=1;align=center;verticalAlign=middle;resizable=0;points=[];" parent="g8M-Z3O3hfqSgjoTpjKX-35" vertex="1" connectable="0">
          <mxGeometry x="0.2936" y="-2" relative="1" as="geometry">
            <mxPoint as="offset" />
          </mxGeometry>
        </mxCell>
        <mxCell id="-N3nTTwxGU15BjkVIk_7-67" value="externalAuth: true" style="edgeStyle=orthogonalEdgeStyle;rounded=0;orthogonalLoop=1;jettySize=auto;html=1;exitX=0.5;exitY=1;exitDx=0;exitDy=0;endArrow=none;endFill=0;dashed=1;entryX=0.5;entryY=0;entryDx=0;entryDy=0;" parent="dNxyNK7c78bLwvsdeMH5-19" source="-N3nTTwxGU15BjkVIk_7-38" target="g8M-Z3O3hfqSgjoTpjKX-34" edge="1">
          <mxGeometry x="-0.4135" relative="1" as="geometry">
            <mxPoint x="2549.8" y="125" as="targetPoint" />
            <mxPoint as="offset" />
          </mxGeometry>
        </mxCell>
        <mxCell id="g8M-Z3O3hfqSgjoTpjKX-40" value="" style="edgeStyle=orthogonalEdgeStyle;rounded=0;orthogonalLoop=1;jettySize=auto;html=1;entryX=0.5;entryY=1;entryDx=0;entryDy=0;" parent="dNxyNK7c78bLwvsdeMH5-19" source="g8M-Z3O3hfqSgjoTpjKX-37" target="-N3nTTwxGU15BjkVIk_7-69" edge="1">
          <mxGeometry relative="1" as="geometry">
            <mxPoint x="2740" y="473" as="targetPoint" />
            <Array as="points">
              <mxPoint x="2740" y="620" />
              <mxPoint x="2020" y="620" />
              <mxPoint x="2020" y="560" />
              <mxPoint x="1280" y="560" />
            </Array>
          </mxGeometry>
        </mxCell>
        <mxCell id="g8M-Z3O3hfqSgjoTpjKX-41" value="&lt;b style=&quot;border-color: var(--border-color);&quot;&gt;POST&lt;/b&gt;&lt;br style=&quot;border-color: var(--border-color);&quot;&gt;&lt;font style=&quot;border-color: var(--border-color);&quot; color=&quot;#6600cc&quot;&gt;firstName, lastName,&lt;br style=&quot;border-color: var(--border-color);&quot;&gt;phoneNumber&lt;br&gt;&lt;i&gt;(&amp;amp; implicitly the accepted terms)&lt;/i&gt;&lt;/font&gt;&lt;br style=&quot;border-color: var(--border-color);&quot;&gt;&lt;i style=&quot;border-color: var(--border-color);&quot;&gt;with JWT access token&lt;/i&gt;&lt;br style=&quot;border-color: var(--border-color);&quot;&gt;to&amp;nbsp;&lt;font style=&quot;border-color: var(--border-color);&quot; color=&quot;#0000ff&quot;&gt;&lt;b style=&quot;border-color: var(--border-color);&quot;&gt;api/users/me/onboard&lt;/b&gt;&lt;/font&gt;" style="edgeLabel;html=1;align=center;verticalAlign=middle;resizable=0;points=[];" parent="g8M-Z3O3hfqSgjoTpjKX-40" vertex="1" connectable="0">
          <mxGeometry x="-0.1834" y="-1" relative="1" as="geometry">
            <mxPoint x="446" y="-239" as="offset" />
          </mxGeometry>
        </mxCell>
      </root>
    </mxGraphModel>
  </diagram>
  <diagram id="x1HzLnhcGFyHAZlymnOe" name="AdminSigninFlow">
    <mxGraphModel dx="4200" dy="2088" grid="1" gridSize="10" guides="1" tooltips="1" connect="1" arrows="1" fold="1" page="1" pageScale="1" pageWidth="850" pageHeight="1100" math="0" shadow="0">
      <root>
        <mxCell id="0" />
        <mxCell id="1" parent="0" />
        <mxCell id="3Aa786nMXEJnLA1YBnis-1" value="SignUp Flow" style="swimlane;html=1;childLayout=stackLayout;resizeParent=1;resizeParentMax=0;horizontal=0;startSize=20;horizontalStack=0;" vertex="1" parent="1">
          <mxGeometry x="120" y="120" width="2920" height="790" as="geometry" />
        </mxCell>
        <mxCell id="3Aa786nMXEJnLA1YBnis-2" value="UI / Templates" style="swimlane;html=1;startSize=20;horizontal=0;" vertex="1" parent="3Aa786nMXEJnLA1YBnis-1">
          <mxGeometry x="20" width="2900" height="160" as="geometry" />
        </mxCell>
        <mxCell id="LrBa3wyCV63M__kORB8Z-2" value="START" style="ellipse;whiteSpace=wrap;html=1;" vertex="1" parent="3Aa786nMXEJnLA1YBnis-2">
          <mxGeometry x="60" y="60" width="50" height="40" as="geometry" />
        </mxCell>
        <mxCell id="LrBa3wyCV63M__kORB8Z-3" value="AdminSigninScreen" style="rounded=0;whiteSpace=wrap;html=1;fontFamily=Helvetica;fontSize=12;fontColor=#000000;align=center;" vertex="1" parent="3Aa786nMXEJnLA1YBnis-2">
          <mxGeometry x="140" y="60" width="120" height="40" as="geometry" />
        </mxCell>
        <mxCell id="LrBa3wyCV63M__kORB8Z-1" value="" style="edgeStyle=orthogonalEdgeStyle;rounded=0;orthogonalLoop=1;jettySize=auto;html=1;" edge="1" parent="3Aa786nMXEJnLA1YBnis-2" source="LrBa3wyCV63M__kORB8Z-2" target="LrBa3wyCV63M__kORB8Z-3">
          <mxGeometry relative="1" as="geometry" />
        </mxCell>
        <mxCell id="3Aa786nMXEJnLA1YBnis-28" value="Frontend Logic" style="swimlane;html=1;startSize=20;horizontal=0;" vertex="1" parent="3Aa786nMXEJnLA1YBnis-1">
          <mxGeometry x="20" y="160" width="2900" height="310" as="geometry" />
        </mxCell>
        <mxCell id="BUjyJmyi6StepJKimdyi-1" value="Enter Credentials&lt;br&gt;(email, password)" style="rounded=0;whiteSpace=wrap;html=1;fontFamily=Helvetica;fontSize=12;fontColor=#000000;align=center;" vertex="1" parent="3Aa786nMXEJnLA1YBnis-28">
          <mxGeometry x="120" y="110" width="160" height="60" as="geometry" />
        </mxCell>
        <mxCell id="IIFaL6uculGSznYXCBl2-4" value="Handle response" style="whiteSpace=wrap;html=1;fontColor=#000000;rounded=0;" vertex="1" parent="3Aa786nMXEJnLA1YBnis-28">
          <mxGeometry x="380" y="110" width="120" height="60" as="geometry" />
        </mxCell>
        <mxCell id="cBEV8P8YPJaxqKFo-bDC-4" value="Handle 2FA prompt" style="whiteSpace=wrap;html=1;fontColor=#000000;rounded=0;" vertex="1" parent="3Aa786nMXEJnLA1YBnis-28">
          <mxGeometry x="600" y="110" width="120" height="60" as="geometry" />
        </mxCell>
        <mxCell id="3Aa786nMXEJnLA1YBnis-47" value="Backend Logic" style="swimlane;html=1;startSize=20;horizontal=0;" vertex="1" parent="3Aa786nMXEJnLA1YBnis-1">
          <mxGeometry x="20" y="470" width="2900" height="190" as="geometry" />
        </mxCell>
        <mxCell id="IIFaL6uculGSznYXCBl2-3" value="" style="edgeStyle=orthogonalEdgeStyle;rounded=0;orthogonalLoop=1;jettySize=auto;html=1;" edge="1" parent="3Aa786nMXEJnLA1YBnis-47" source="BUjyJmyi6StepJKimdyi-5" target="IIFaL6uculGSznYXCBl2-2">
          <mxGeometry relative="1" as="geometry" />
        </mxCell>
        <mxCell id="BUjyJmyi6StepJKimdyi-5" value="Enter Credentials&lt;br&gt;(username, password)" style="rounded=0;whiteSpace=wrap;html=1;fontFamily=Helvetica;fontSize=12;fontColor=#000000;align=center;" vertex="1" parent="3Aa786nMXEJnLA1YBnis-47">
          <mxGeometry x="120" y="65" width="160" height="60" as="geometry" />
        </mxCell>
        <mxCell id="IIFaL6uculGSznYXCBl2-2" value="Check role" style="rhombus;whiteSpace=wrap;html=1;fontColor=#000000;rounded=0;" vertex="1" parent="3Aa786nMXEJnLA1YBnis-47">
          <mxGeometry x="400" y="55" width="80" height="80" as="geometry" />
        </mxCell>
        <mxCell id="3Aa786nMXEJnLA1YBnis-54" value="Google Auth" style="swimlane;html=1;startSize=20;horizontal=0;" vertex="1" parent="3Aa786nMXEJnLA1YBnis-1">
          <mxGeometry x="20" y="660" width="2900" height="130" as="geometry" />
        </mxCell>
        <mxCell id="BUjyJmyi6StepJKimdyi-2" style="edgeStyle=orthogonalEdgeStyle;rounded=0;orthogonalLoop=1;jettySize=auto;html=1;exitX=0.5;exitY=1;exitDx=0;exitDy=0;" edge="1" parent="3Aa786nMXEJnLA1YBnis-1" source="LrBa3wyCV63M__kORB8Z-3" target="BUjyJmyi6StepJKimdyi-1">
          <mxGeometry relative="1" as="geometry" />
        </mxCell>
        <mxCell id="BUjyJmyi6StepJKimdyi-6" value="" style="edgeStyle=orthogonalEdgeStyle;rounded=0;orthogonalLoop=1;jettySize=auto;html=1;" edge="1" parent="3Aa786nMXEJnLA1YBnis-1" source="BUjyJmyi6StepJKimdyi-1" target="BUjyJmyi6StepJKimdyi-5">
          <mxGeometry relative="1" as="geometry" />
        </mxCell>
        <mxCell id="IIFaL6uculGSznYXCBl2-1" value="&lt;b style=&quot;border-color: var(--border-color);&quot;&gt;POST&lt;br style=&quot;border-color: var(--border-color);&quot;&gt;&lt;/b&gt;&lt;span style=&quot;border-color: var(--border-color); background-color: rgb(251, 251, 251);&quot;&gt;&lt;font style=&quot;border-color: var(--border-color);&quot; color=&quot;#6600cc&quot;&gt;email address&lt;br&gt;&lt;/font&gt;&lt;/span&gt;password&lt;br style=&quot;border-color: var(--border-color); background-color: rgb(251, 251, 251);&quot;&gt;&lt;span style=&quot;border-color: var(--border-color);&quot;&gt;to&amp;nbsp;&lt;b style=&quot;border-color: var(--border-color);&quot;&gt;&lt;font style=&quot;border-color: var(--border-color);&quot; color=&quot;#0000ff&quot;&gt;api/admin/signin&lt;/font&gt;&lt;/b&gt;&lt;/span&gt;" style="edgeLabel;html=1;align=center;verticalAlign=middle;resizable=0;points=[];" vertex="1" connectable="0" parent="BUjyJmyi6StepJKimdyi-6">
          <mxGeometry x="-0.1174" y="1" relative="1" as="geometry">
            <mxPoint as="offset" />
          </mxGeometry>
        </mxCell>
        <mxCell id="IIFaL6uculGSznYXCBl2-5" value="" style="edgeStyle=orthogonalEdgeStyle;rounded=0;orthogonalLoop=1;jettySize=auto;html=1;" edge="1" parent="3Aa786nMXEJnLA1YBnis-1" source="IIFaL6uculGSznYXCBl2-2" target="IIFaL6uculGSznYXCBl2-4">
          <mxGeometry relative="1" as="geometry" />
        </mxCell>
        <mxCell id="cBEV8P8YPJaxqKFo-bDC-1" value="&lt;b style=&quot;border-color: var(--border-color);&quot;&gt;&lt;font color=&quot;#ff0000&quot; style=&quot;border-color: var(--border-color);&quot;&gt;HTTP 401&lt;br&gt;user&lt;br&gt;&lt;/font&gt;&lt;/b&gt;" style="edgeLabel;html=1;align=center;verticalAlign=middle;resizable=0;points=[];" vertex="1" connectable="0" parent="IIFaL6uculGSznYXCBl2-5">
          <mxGeometry x="0.0454" relative="1" as="geometry">
            <mxPoint as="offset" />
          </mxGeometry>
        </mxCell>
        <mxCell id="cBEV8P8YPJaxqKFo-bDC-5" value="" style="edgeStyle=orthogonalEdgeStyle;rounded=0;orthogonalLoop=1;jettySize=auto;html=1;" edge="1" parent="3Aa786nMXEJnLA1YBnis-1" source="IIFaL6uculGSznYXCBl2-2" target="cBEV8P8YPJaxqKFo-bDC-4">
          <mxGeometry relative="1" as="geometry" />
        </mxCell>
        <mxCell id="0cCHHQhTOhpErZmTsUYV-1" value="&lt;b style=&quot;border-color: var(--border-color);&quot;&gt;&lt;font style=&quot;border-color: var(--border-color);&quot; color=&quot;#00994d&quot;&gt;HTTP 200&lt;/font&gt;&lt;/b&gt;&lt;br style=&quot;border-color: var(--border-color);&quot;&gt;&lt;font color=&quot;#6600cc&quot;&gt;admin&lt;/font&gt;" style="edgeLabel;html=1;align=center;verticalAlign=middle;resizable=0;points=[];" vertex="1" connectable="0" parent="cBEV8P8YPJaxqKFo-bDC-5">
          <mxGeometry x="0.5811" relative="1" as="geometry">
            <mxPoint y="3" as="offset" />
          </mxGeometry>
        </mxCell>
      </root>
    </mxGraphModel>
  </diagram>
</mxfile>
